<svg width="256" height="256" viewBox="0 0 256 256" fill="none" xmlns="http://www.w3.org/2000/svg">
<circle cx="128" cy="128" r="125.5" fill="#101A4F" fill-opacity="0.869" stroke="#FACE08" stroke-width="5"/>
<path d="M109.109 47.8122C111.435 42.694 112.598 40.1348 114.491 38.7287C116.113 37.5238 118.091 36.8851 120.11 36.9144C122.465 36.9485 124.898 38.3464 129.765 41.1421V41.1421C133.762 43.4385 135.76 44.5867 136.9 46.247C137.881 47.6743 138.417 49.3567 138.444 51.0896C138.476 53.1054 137.513 55.2039 135.585 59.4008L75.6891 189.846C73.6823 194.217 72.6789 196.402 71.0835 197.727C69.5216 199.025 67.5694 199.771 65.5403 199.845C63.4677 199.921 61.2631 198.961 56.8539 197.041V197.041C52.4292 195.115 50.2169 194.152 48.8849 192.589C47.581 191.059 46.8414 189.134 46.7855 187.124C46.7284 185.072 47.7267 182.875 49.7234 178.481L109.109 47.8122Z" fill="#FACE08"/>
<rect width="25.9494" height="161.644" rx="10" transform="matrix(0.390418 0.920638 -0.926465 0.376381 185.023 87.4451)" fill="white"/>
<path d="M110.284 57.4176C106.899 49.8565 110.38 41.0571 117.993 37.7916V37.7916C125.607 34.5261 134.576 37.9855 137.961 45.5466L201.81 188.154C202.938 190.674 201.796 193.6 199.258 194.688L180.771 202.617C178.233 203.706 175.261 202.545 174.133 200.025L110.284 57.4176Z" fill="#FACE08"/>
<rect width="26.0904" height="26.0904" rx="10" transform="matrix(0.919032 -0.394182 0.408635 0.912698 190.694 82.8332)" fill="white"/>
</svg>
